<svg width="19" height="19" viewBox="0 0 19 19" fill="none" xmlns="http://www.w3.org/2000/svg">
<path d="M2.375 4.75H3.95833H16.625" stroke="black" stroke-linecap="round" stroke-linejoin="round"/>
<path d="M6.33331 4.75V3.16666C6.33331 2.74674 6.50013 2.34401 6.79706 2.04708C7.09399 1.75014 7.49672 1.58333 7.91665 1.58333H11.0833C11.5032 1.58333 11.906 1.75014 12.2029 2.04708C12.4998 2.34401 12.6666 2.74674 12.6666 3.16666V4.75M15.0416 4.75V15.8333C15.0416 16.2533 14.8748 16.656 14.5779 16.9529C14.281 17.2498 13.8782 17.4167 13.4583 17.4167H5.54165C5.12172 17.4167 4.71899 17.2498 4.42206 16.9529C4.12513 16.656 3.95831 16.2533 3.95831 15.8333V4.75H15.0416Z" stroke="black" stroke-linecap="round" stroke-linejoin="round"/>
<path d="M7.91669 8.70833V13.4583" stroke="black" stroke-linecap="round" stroke-linejoin="round"/>
<path d="M11.0833 8.70833V13.4583" stroke="black" stroke-linecap="round" stroke-linejoin="round"/>
</svg>
